%TF.GenerationSoftware,KiCad,Pcbnew,(6.0.0)*%
%TF.CreationDate,2022-01-24T17:50:55-05:00*%
%TF.ProjectId,VCP200 better,56435032-3030-4206-9265-747465722e6b,rev?*%
%TF.SameCoordinates,Original*%
%TF.FileFunction,Soldermask,Bot*%
%TF.FilePolarity,Negative*%
%FSLAX46Y46*%
G04 Gerber Fmt 4.6, Leading zero omitted, Abs format (unit mm)*
G04 Created by KiCad (PCBNEW (6.0.0)) date 2022-01-24 17:50:55*
%MOMM*%
%LPD*%
G01*
G04 APERTURE LIST*
%ADD10C,1.600000*%
%ADD11R,1.700000X1.700000*%
%ADD12O,1.700000X1.700000*%
%ADD13C,3.200000*%
%ADD14C,2.500000*%
%ADD15O,1.600000X1.600000*%
%ADD16C,1.700000*%
%ADD17R,1.600000X1.600000*%
%ADD18C,1.500000*%
G04 APERTURE END LIST*
D10*
%TO.C,C1*%
X118359000Y-107228000D03*
X118359000Y-112228000D03*
%TD*%
%TO.C,C5*%
X135885000Y-86360000D03*
X130885000Y-86360000D03*
%TD*%
D11*
%TO.C,J1*%
X125725000Y-73157000D03*
D12*
X125725000Y-70617000D03*
%TD*%
D11*
%TO.C,MIC1*%
X117851000Y-89413000D03*
D12*
X117851000Y-86873000D03*
%TD*%
D13*
%TO.C,H1*%
X233680000Y-60960000D03*
%TD*%
D10*
%TO.C,C6*%
X140203000Y-123404000D03*
X140203000Y-118404000D03*
%TD*%
%TO.C,C3*%
X132035000Y-112014000D03*
X127035000Y-112014000D03*
%TD*%
%TO.C,C13*%
X166410000Y-61214000D03*
X171410000Y-61214000D03*
%TD*%
D14*
%TO.C,/RESET*%
X163830000Y-74930000D03*
%TD*%
D13*
%TO.C,H2*%
X233680000Y-124460000D03*
%TD*%
D10*
%TO.C,R6*%
X132583000Y-102870000D03*
D15*
X132583000Y-92710000D03*
%TD*%
D16*
%TO.C,SW1*%
X166914000Y-72084000D03*
X166914000Y-65584000D03*
X171414000Y-72084000D03*
X171414000Y-65584000D03*
%TD*%
D10*
%TO.C,R1*%
X116073000Y-80772000D03*
D15*
X126233000Y-80772000D03*
%TD*%
D17*
%TO.C,IC4*%
X200655000Y-116068000D03*
D15*
X203195000Y-116068000D03*
X205735000Y-116068000D03*
X208275000Y-116068000D03*
X210815000Y-116068000D03*
X213355000Y-116068000D03*
X215895000Y-116068000D03*
X215895000Y-108448000D03*
X213355000Y-108448000D03*
X210815000Y-108448000D03*
X208275000Y-108448000D03*
X205735000Y-108448000D03*
X203195000Y-108448000D03*
X200655000Y-108448000D03*
%TD*%
D10*
%TO.C,C10*%
X170434000Y-121118000D03*
X170434000Y-116118000D03*
%TD*%
%TO.C,R5*%
X143759000Y-91186000D03*
D15*
X143759000Y-81026000D03*
%TD*%
D11*
%TO.C,JU1*%
X167386000Y-80010000D03*
D12*
X167386000Y-82550000D03*
X167386000Y-85090000D03*
%TD*%
D10*
%TO.C,R10*%
X148585000Y-107188000D03*
D15*
X158745000Y-107188000D03*
%TD*%
D10*
%TO.C,R3*%
X126487000Y-117856000D03*
D15*
X136647000Y-117856000D03*
%TD*%
D11*
%TO.C,J2*%
X224536000Y-80518000D03*
D12*
X224536000Y-83058000D03*
X224536000Y-85598000D03*
X224536000Y-88138000D03*
X224536000Y-90678000D03*
X224536000Y-93218000D03*
X224536000Y-95758000D03*
X224536000Y-98298000D03*
X224536000Y-100838000D03*
X224536000Y-103378000D03*
%TD*%
D17*
%TO.C,IC5*%
X200655000Y-77714000D03*
D15*
X203195000Y-77714000D03*
X205735000Y-77714000D03*
X208275000Y-77714000D03*
X210815000Y-77714000D03*
X213355000Y-77714000D03*
X215895000Y-77714000D03*
X215895000Y-70094000D03*
X213355000Y-70094000D03*
X210815000Y-70094000D03*
X208275000Y-70094000D03*
X205735000Y-70094000D03*
X203195000Y-70094000D03*
X200655000Y-70094000D03*
%TD*%
D13*
%TO.C,H3*%
X115062000Y-60960000D03*
%TD*%
D11*
%TO.C,JU7*%
X189753000Y-83312000D03*
D12*
X192293000Y-83312000D03*
X194833000Y-83312000D03*
%TD*%
D13*
%TO.C,H4*%
X115062000Y-124460000D03*
%TD*%
D18*
%TO.C,XTAL1*%
X170344000Y-108966000D03*
X165464000Y-108966000D03*
%TD*%
D11*
%TO.C,JU4*%
X189768000Y-117602000D03*
D12*
X192308000Y-117602000D03*
X194848000Y-117602000D03*
%TD*%
D17*
%TO.C,C11*%
X119121000Y-71628000D03*
D10*
X117121000Y-71628000D03*
%TD*%
D11*
%TO.C,JU6*%
X189738000Y-105156000D03*
D12*
X192278000Y-105156000D03*
X194818000Y-105156000D03*
%TD*%
D11*
%TO.C,JU8*%
X189753000Y-77470000D03*
D12*
X192293000Y-77470000D03*
X194833000Y-77470000D03*
%TD*%
D10*
%TO.C,R7*%
X138425000Y-89408000D03*
D15*
X128265000Y-89408000D03*
%TD*%
D17*
%TO.C,IC3*%
X162306000Y-100076000D03*
D15*
X164846000Y-100076000D03*
X167386000Y-100076000D03*
X169926000Y-100076000D03*
X172466000Y-100076000D03*
X175006000Y-100076000D03*
X177546000Y-100076000D03*
X180086000Y-100076000D03*
X182626000Y-100076000D03*
X185166000Y-100076000D03*
X185166000Y-92456000D03*
X182626000Y-92456000D03*
X180086000Y-92456000D03*
X177546000Y-92456000D03*
X175006000Y-92456000D03*
X172466000Y-92456000D03*
X169926000Y-92456000D03*
X167386000Y-92456000D03*
X164846000Y-92456000D03*
X162306000Y-92456000D03*
%TD*%
D11*
%TO.C,JU9*%
X189753000Y-70866000D03*
D12*
X192293000Y-70866000D03*
X194833000Y-70866000D03*
%TD*%
D10*
%TO.C,C12*%
X115665887Y-76200000D03*
X120665887Y-76200000D03*
%TD*%
D17*
%TO.C,IC1*%
X153416000Y-94498000D03*
D15*
X150876000Y-94498000D03*
X148336000Y-94498000D03*
X145796000Y-94498000D03*
X143256000Y-94498000D03*
X140716000Y-94498000D03*
X138176000Y-94498000D03*
X138176000Y-102118000D03*
X140716000Y-102118000D03*
X143256000Y-102118000D03*
X145796000Y-102118000D03*
X148336000Y-102118000D03*
X150876000Y-102118000D03*
X153416000Y-102118000D03*
%TD*%
D11*
%TO.C,JU3*%
X189768000Y-123190000D03*
D12*
X192308000Y-123190000D03*
X194848000Y-123190000D03*
%TD*%
D10*
%TO.C,R11*%
X162306000Y-71628000D03*
D15*
X162306000Y-61468000D03*
%TD*%
D10*
%TO.C,R4*%
X137155000Y-108966000D03*
D15*
X126995000Y-108966000D03*
%TD*%
D10*
%TO.C,C7*%
X146299000Y-123150000D03*
X146299000Y-118150000D03*
%TD*%
D11*
%TO.C,JU5*%
X189753000Y-111506000D03*
D12*
X192293000Y-111506000D03*
X194833000Y-111506000D03*
%TD*%
D11*
%TO.C,JU10*%
X189753000Y-65278000D03*
D12*
X192293000Y-65278000D03*
X194833000Y-65278000D03*
%TD*%
D10*
%TO.C,R8*%
X138171000Y-112776000D03*
D15*
X148331000Y-112776000D03*
%TD*%
D10*
%TO.C,R9*%
X153665000Y-122936000D03*
D15*
X153665000Y-112776000D03*
%TD*%
D10*
%TO.C,C9*%
X165608000Y-121118000D03*
X165608000Y-116118000D03*
%TD*%
%TO.C,C4*%
X126995000Y-106386000D03*
X126995000Y-101386000D03*
%TD*%
%TO.C,C2*%
X128813000Y-122174000D03*
X133813000Y-122174000D03*
%TD*%
%TO.C,R2*%
X123439000Y-110998000D03*
D15*
X123439000Y-121158000D03*
%TD*%
D10*
%TO.C,C8*%
X157734000Y-98766000D03*
X157734000Y-93766000D03*
%TD*%
M02*
