%FSLAX45Y45*%
G04 Gerber Fmt 4.5, Leading zero omitted, Abs format (unit mm)*
G04 Created by KiCad (PCBNEW (6.0.0)) date 2022-01-24 17:50:58*
%MOMM*%
%LPD*%
G01*
G04 APERTURE LIST*
%TA.AperFunction,Profile*%
%ADD10C,0.100000*%
%TD*%
%ADD11C,0.200000*%
%ADD12C,0.320000*%
G04 APERTURE END LIST*
D10*
X11125200Y-12446000D02*
G75*
G03*
X11506200Y-12827000I381000J0D01*
G01*
X23749000Y-12446000D02*
X23749000Y-6096000D01*
X11506200Y-5715000D02*
X23368000Y-5715000D01*
X11506200Y-5715000D02*
G75*
G03*
X11125200Y-6096000I0J-381000D01*
G01*
X23368000Y-12827000D02*
G75*
G03*
X23749000Y-12446000I0J381000D01*
G01*
X11125200Y-6096000D02*
X11125200Y-12446000D01*
X11506200Y-12827000D02*
X23368000Y-12827000D01*
X23749000Y-6096000D02*
G75*
G03*
X23368000Y-5715000I-381000J0D01*
G01*
D11*
D12*
X11346200Y-5936000D02*
X11666200Y-6256000D01*
X11666200Y-5936000D02*
X11346200Y-6256000D01*
X11346200Y-12286000D02*
X11666200Y-12606000D01*
X11666200Y-12286000D02*
X11346200Y-12606000D01*
X23208000Y-5936000D02*
X23528000Y-6256000D01*
X23528000Y-5936000D02*
X23208000Y-6256000D01*
X23208000Y-12286000D02*
X23528000Y-12606000D01*
X23528000Y-12286000D02*
X23208000Y-12606000D01*
D11*
X11377819Y-13142476D02*
X11377819Y-12942476D01*
X11425438Y-12942476D01*
X11454009Y-12952000D01*
X11473057Y-12971048D01*
X11482581Y-12990095D01*
X11492105Y-13028190D01*
X11492105Y-13056762D01*
X11482581Y-13094857D01*
X11473057Y-13113905D01*
X11454009Y-13132952D01*
X11425438Y-13142476D01*
X11377819Y-13142476D01*
X11577819Y-13142476D02*
X11577819Y-13009143D01*
X11577819Y-13047238D02*
X11587343Y-13028190D01*
X11596867Y-13018667D01*
X11615914Y-13009143D01*
X11634962Y-13009143D01*
X11701628Y-13142476D02*
X11701628Y-13009143D01*
X11701628Y-12942476D02*
X11692105Y-12952000D01*
X11701628Y-12961524D01*
X11711152Y-12952000D01*
X11701628Y-12942476D01*
X11701628Y-12961524D01*
X11825438Y-13142476D02*
X11806390Y-13132952D01*
X11796867Y-13113905D01*
X11796867Y-12942476D01*
X11930200Y-13142476D02*
X11911152Y-13132952D01*
X11901628Y-13113905D01*
X11901628Y-12942476D01*
X12158771Y-13142476D02*
X12158771Y-12942476D01*
X12225438Y-13085333D01*
X12292105Y-12942476D01*
X12292105Y-13142476D01*
X12473057Y-13142476D02*
X12473057Y-13037714D01*
X12463533Y-13018667D01*
X12444486Y-13009143D01*
X12406390Y-13009143D01*
X12387343Y-13018667D01*
X12473057Y-13132952D02*
X12454009Y-13142476D01*
X12406390Y-13142476D01*
X12387343Y-13132952D01*
X12377819Y-13113905D01*
X12377819Y-13094857D01*
X12387343Y-13075809D01*
X12406390Y-13066286D01*
X12454009Y-13066286D01*
X12473057Y-13056762D01*
X12568295Y-13009143D02*
X12568295Y-13209143D01*
X12568295Y-13018667D02*
X12587343Y-13009143D01*
X12625438Y-13009143D01*
X12644486Y-13018667D01*
X12654009Y-13028190D01*
X12663533Y-13047238D01*
X12663533Y-13104381D01*
X12654009Y-13123428D01*
X12644486Y-13132952D01*
X12625438Y-13142476D01*
X12587343Y-13142476D01*
X12568295Y-13132952D01*
X12749248Y-13123428D02*
X12758771Y-13132952D01*
X12749248Y-13142476D01*
X12739724Y-13132952D01*
X12749248Y-13123428D01*
X12749248Y-13142476D01*
X12749248Y-13018667D02*
X12758771Y-13028190D01*
X12749248Y-13037714D01*
X12739724Y-13028190D01*
X12749248Y-13018667D01*
X12749248Y-13037714D01*
X10920200Y-13372000D02*
X11120200Y-13572000D01*
X11120200Y-13372000D02*
X10920200Y-13572000D01*
X11358771Y-13362476D02*
X11482581Y-13362476D01*
X11415914Y-13438667D01*
X11444486Y-13438667D01*
X11463533Y-13448190D01*
X11473057Y-13457714D01*
X11482581Y-13476762D01*
X11482581Y-13524381D01*
X11473057Y-13543428D01*
X11463533Y-13552952D01*
X11444486Y-13562476D01*
X11387343Y-13562476D01*
X11368295Y-13552952D01*
X11358771Y-13543428D01*
X11568295Y-13543428D02*
X11577819Y-13552952D01*
X11568295Y-13562476D01*
X11558771Y-13552952D01*
X11568295Y-13543428D01*
X11568295Y-13562476D01*
X11654009Y-13381524D02*
X11663533Y-13372000D01*
X11682581Y-13362476D01*
X11730200Y-13362476D01*
X11749248Y-13372000D01*
X11758771Y-13381524D01*
X11768295Y-13400571D01*
X11768295Y-13419619D01*
X11758771Y-13448190D01*
X11644486Y-13562476D01*
X11768295Y-13562476D01*
X11892105Y-13362476D02*
X11911152Y-13362476D01*
X11930200Y-13372000D01*
X11939724Y-13381524D01*
X11949248Y-13400571D01*
X11958771Y-13438667D01*
X11958771Y-13486286D01*
X11949248Y-13524381D01*
X11939724Y-13543428D01*
X11930200Y-13552952D01*
X11911152Y-13562476D01*
X11892105Y-13562476D01*
X11873057Y-13552952D01*
X11863533Y-13543428D01*
X11854009Y-13524381D01*
X11844486Y-13486286D01*
X11844486Y-13438667D01*
X11854009Y-13400571D01*
X11863533Y-13381524D01*
X11873057Y-13372000D01*
X11892105Y-13362476D01*
X12082581Y-13362476D02*
X12101628Y-13362476D01*
X12120676Y-13372000D01*
X12130200Y-13381524D01*
X12139724Y-13400571D01*
X12149248Y-13438667D01*
X12149248Y-13486286D01*
X12139724Y-13524381D01*
X12130200Y-13543428D01*
X12120676Y-13552952D01*
X12101628Y-13562476D01*
X12082581Y-13562476D01*
X12063533Y-13552952D01*
X12054009Y-13543428D01*
X12044486Y-13524381D01*
X12034962Y-13486286D01*
X12034962Y-13438667D01*
X12044486Y-13400571D01*
X12054009Y-13381524D01*
X12063533Y-13372000D01*
X12082581Y-13362476D01*
X12234962Y-13562476D02*
X12234962Y-13429143D01*
X12234962Y-13448190D02*
X12244486Y-13438667D01*
X12263533Y-13429143D01*
X12292105Y-13429143D01*
X12311152Y-13438667D01*
X12320676Y-13457714D01*
X12320676Y-13562476D01*
X12320676Y-13457714D02*
X12330200Y-13438667D01*
X12349248Y-13429143D01*
X12377819Y-13429143D01*
X12396867Y-13438667D01*
X12406390Y-13457714D01*
X12406390Y-13562476D01*
X12501628Y-13562476D02*
X12501628Y-13429143D01*
X12501628Y-13448190D02*
X12511152Y-13438667D01*
X12530200Y-13429143D01*
X12558771Y-13429143D01*
X12577819Y-13438667D01*
X12587343Y-13457714D01*
X12587343Y-13562476D01*
X12587343Y-13457714D02*
X12596867Y-13438667D01*
X12615914Y-13429143D01*
X12644486Y-13429143D01*
X12663533Y-13438667D01*
X12673057Y-13457714D01*
X12673057Y-13562476D01*
X13063533Y-13352952D02*
X12892105Y-13610095D01*
X13320676Y-13362476D02*
X13339724Y-13362476D01*
X13358771Y-13372000D01*
X13368295Y-13381524D01*
X13377819Y-13400571D01*
X13387343Y-13438667D01*
X13387343Y-13486286D01*
X13377819Y-13524381D01*
X13368295Y-13543428D01*
X13358771Y-13552952D01*
X13339724Y-13562476D01*
X13320676Y-13562476D01*
X13301628Y-13552952D01*
X13292105Y-13543428D01*
X13282581Y-13524381D01*
X13273057Y-13486286D01*
X13273057Y-13438667D01*
X13282581Y-13400571D01*
X13292105Y-13381524D01*
X13301628Y-13372000D01*
X13320676Y-13362476D01*
X13473057Y-13543428D02*
X13482581Y-13552952D01*
X13473057Y-13562476D01*
X13463533Y-13552952D01*
X13473057Y-13543428D01*
X13473057Y-13562476D01*
X13673057Y-13562476D02*
X13558771Y-13562476D01*
X13615914Y-13562476D02*
X13615914Y-13362476D01*
X13596867Y-13391048D01*
X13577819Y-13410095D01*
X13558771Y-13419619D01*
X13749248Y-13381524D02*
X13758771Y-13372000D01*
X13777819Y-13362476D01*
X13825438Y-13362476D01*
X13844486Y-13372000D01*
X13854009Y-13381524D01*
X13863533Y-13400571D01*
X13863533Y-13419619D01*
X13854009Y-13448190D01*
X13739724Y-13562476D01*
X13863533Y-13562476D01*
X14034962Y-13362476D02*
X13996867Y-13362476D01*
X13977819Y-13372000D01*
X13968295Y-13381524D01*
X13949248Y-13410095D01*
X13939724Y-13448190D01*
X13939724Y-13524381D01*
X13949248Y-13543428D01*
X13958771Y-13552952D01*
X13977819Y-13562476D01*
X14015914Y-13562476D01*
X14034962Y-13552952D01*
X14044486Y-13543428D01*
X14054009Y-13524381D01*
X14054009Y-13476762D01*
X14044486Y-13457714D01*
X14034962Y-13448190D01*
X14015914Y-13438667D01*
X13977819Y-13438667D01*
X13958771Y-13448190D01*
X13949248Y-13457714D01*
X13939724Y-13476762D01*
X14177819Y-13362476D02*
X14196867Y-13362476D01*
X14215914Y-13372000D01*
X14225438Y-13381524D01*
X14234962Y-13400571D01*
X14244486Y-13438667D01*
X14244486Y-13486286D01*
X14234962Y-13524381D01*
X14225438Y-13543428D01*
X14215914Y-13552952D01*
X14196867Y-13562476D01*
X14177819Y-13562476D01*
X14158771Y-13552952D01*
X14149248Y-13543428D01*
X14139724Y-13524381D01*
X14130200Y-13486286D01*
X14130200Y-13438667D01*
X14139724Y-13400571D01*
X14149248Y-13381524D01*
X14158771Y-13372000D01*
X14177819Y-13362476D01*
X14320676Y-13362476D02*
X14320676Y-13400571D01*
X14396867Y-13362476D02*
X14396867Y-13400571D01*
X14692105Y-13638667D02*
X14682581Y-13629143D01*
X14663533Y-13600571D01*
X14654009Y-13581524D01*
X14644486Y-13552952D01*
X14634962Y-13505333D01*
X14634962Y-13467238D01*
X14644486Y-13419619D01*
X14654009Y-13391048D01*
X14663533Y-13372000D01*
X14682581Y-13343428D01*
X14692105Y-13333905D01*
X14854009Y-13429143D02*
X14854009Y-13562476D01*
X14806390Y-13352952D02*
X14758771Y-13495809D01*
X14882581Y-13495809D01*
X15111152Y-13562476D02*
X15111152Y-13362476D01*
X15196867Y-13562476D02*
X15196867Y-13457714D01*
X15187343Y-13438667D01*
X15168295Y-13429143D01*
X15139724Y-13429143D01*
X15120676Y-13438667D01*
X15111152Y-13448190D01*
X15320676Y-13562476D02*
X15301628Y-13552952D01*
X15292105Y-13543428D01*
X15282581Y-13524381D01*
X15282581Y-13467238D01*
X15292105Y-13448190D01*
X15301628Y-13438667D01*
X15320676Y-13429143D01*
X15349248Y-13429143D01*
X15368295Y-13438667D01*
X15377819Y-13448190D01*
X15387343Y-13467238D01*
X15387343Y-13524381D01*
X15377819Y-13543428D01*
X15368295Y-13552952D01*
X15349248Y-13562476D01*
X15320676Y-13562476D01*
X15501628Y-13562476D02*
X15482581Y-13552952D01*
X15473057Y-13533905D01*
X15473057Y-13362476D01*
X15654009Y-13552952D02*
X15634962Y-13562476D01*
X15596867Y-13562476D01*
X15577819Y-13552952D01*
X15568295Y-13533905D01*
X15568295Y-13457714D01*
X15577819Y-13438667D01*
X15596867Y-13429143D01*
X15634962Y-13429143D01*
X15654009Y-13438667D01*
X15663533Y-13457714D01*
X15663533Y-13476762D01*
X15568295Y-13495809D01*
X15739724Y-13552952D02*
X15758771Y-13562476D01*
X15796867Y-13562476D01*
X15815914Y-13552952D01*
X15825438Y-13533905D01*
X15825438Y-13524381D01*
X15815914Y-13505333D01*
X15796867Y-13495809D01*
X15768295Y-13495809D01*
X15749248Y-13486286D01*
X15739724Y-13467238D01*
X15739724Y-13457714D01*
X15749248Y-13438667D01*
X15768295Y-13429143D01*
X15796867Y-13429143D01*
X15815914Y-13438667D01*
X15892105Y-13638667D02*
X15901628Y-13629143D01*
X15920676Y-13600571D01*
X15930200Y-13581524D01*
X15939724Y-13552952D01*
X15949248Y-13505333D01*
X15949248Y-13467238D01*
X15939724Y-13419619D01*
X15930200Y-13391048D01*
X15920676Y-13372000D01*
X15901628Y-13343428D01*
X15892105Y-13333905D01*
X16254009Y-13638667D02*
X16244486Y-13629143D01*
X16225438Y-13600571D01*
X16215914Y-13581524D01*
X16206390Y-13552952D01*
X16196867Y-13505333D01*
X16196867Y-13467238D01*
X16206390Y-13419619D01*
X16215914Y-13391048D01*
X16225438Y-13372000D01*
X16244486Y-13343428D01*
X16254009Y-13333905D01*
X16330200Y-13429143D02*
X16330200Y-13562476D01*
X16330200Y-13448190D02*
X16339724Y-13438667D01*
X16358771Y-13429143D01*
X16387343Y-13429143D01*
X16406390Y-13438667D01*
X16415914Y-13457714D01*
X16415914Y-13562476D01*
X16539724Y-13562476D02*
X16520676Y-13552952D01*
X16511152Y-13543428D01*
X16501628Y-13524381D01*
X16501628Y-13467238D01*
X16511152Y-13448190D01*
X16520676Y-13438667D01*
X16539724Y-13429143D01*
X16568295Y-13429143D01*
X16587343Y-13438667D01*
X16596867Y-13448190D01*
X16606390Y-13467238D01*
X16606390Y-13524381D01*
X16596867Y-13543428D01*
X16587343Y-13552952D01*
X16568295Y-13562476D01*
X16539724Y-13562476D01*
X16663533Y-13429143D02*
X16739724Y-13429143D01*
X16692105Y-13362476D02*
X16692105Y-13533905D01*
X16701628Y-13552952D01*
X16720676Y-13562476D01*
X16739724Y-13562476D01*
X16958771Y-13429143D02*
X16958771Y-13629143D01*
X16958771Y-13438667D02*
X16977819Y-13429143D01*
X17015914Y-13429143D01*
X17034962Y-13438667D01*
X17044486Y-13448190D01*
X17054010Y-13467238D01*
X17054010Y-13524381D01*
X17044486Y-13543428D01*
X17034962Y-13552952D01*
X17015914Y-13562476D01*
X16977819Y-13562476D01*
X16958771Y-13552952D01*
X17168295Y-13562476D02*
X17149248Y-13552952D01*
X17139724Y-13533905D01*
X17139724Y-13362476D01*
X17330200Y-13562476D02*
X17330200Y-13457714D01*
X17320676Y-13438667D01*
X17301629Y-13429143D01*
X17263533Y-13429143D01*
X17244486Y-13438667D01*
X17330200Y-13552952D02*
X17311152Y-13562476D01*
X17263533Y-13562476D01*
X17244486Y-13552952D01*
X17234962Y-13533905D01*
X17234962Y-13514857D01*
X17244486Y-13495809D01*
X17263533Y-13486286D01*
X17311152Y-13486286D01*
X17330200Y-13476762D01*
X17396867Y-13429143D02*
X17473057Y-13429143D01*
X17425438Y-13362476D02*
X17425438Y-13533905D01*
X17434962Y-13552952D01*
X17454010Y-13562476D01*
X17473057Y-13562476D01*
X17615914Y-13552952D02*
X17596867Y-13562476D01*
X17558771Y-13562476D01*
X17539724Y-13552952D01*
X17530200Y-13533905D01*
X17530200Y-13457714D01*
X17539724Y-13438667D01*
X17558771Y-13429143D01*
X17596867Y-13429143D01*
X17615914Y-13438667D01*
X17625438Y-13457714D01*
X17625438Y-13476762D01*
X17530200Y-13495809D01*
X17796867Y-13562476D02*
X17796867Y-13362476D01*
X17796867Y-13552952D02*
X17777819Y-13562476D01*
X17739724Y-13562476D01*
X17720676Y-13552952D01*
X17711152Y-13543428D01*
X17701629Y-13524381D01*
X17701629Y-13467238D01*
X17711152Y-13448190D01*
X17720676Y-13438667D01*
X17739724Y-13429143D01*
X17777819Y-13429143D01*
X17796867Y-13438667D01*
X17873057Y-13638667D02*
X17882581Y-13629143D01*
X17901629Y-13600571D01*
X17911152Y-13581524D01*
X17920676Y-13552952D01*
X17930200Y-13505333D01*
X17930200Y-13467238D01*
X17920676Y-13419619D01*
X17911152Y-13391048D01*
X17901629Y-13372000D01*
X17882581Y-13343428D01*
X17873057Y-13333905D01*
M02*
