M48
; DRILL file {KiCad (6.0.0)} date Mon Jan 24 17:50:57 2022
; FORMAT={-:-/ absolute / metric / decimal}
; #@! TF.CreationDate,2022-01-24T17:50:57-05:00
; #@! TF.GenerationSoftware,Kicad,Pcbnew,(6.0.0)
; #@! TF.FileFunction,Plated,1,2,PTH
FMAT,2
METRIC
; #@! TA.AperFunction,Plated,PTH,ViaDrill
T1C0.400
; #@! TA.AperFunction,Plated,PTH,ComponentDrill
T2C0.800
; #@! TA.AperFunction,Plated,PTH,ComponentDrill
T3C1.000
; #@! TA.AperFunction,Plated,PTH,ComponentDrill
T4C1.200
%
G90
G05
T1
X155.448Y-85.598
X162.052Y-83.058
X219.456Y-64.77
X219.71Y-75.438
X228.346Y-64.77
X228.6Y-75.438
T2
X115.666Y-76.2
X116.073Y-80.772
X117.121Y-71.628
X118.359Y-107.228
X118.359Y-112.228
X119.121Y-71.628
X120.666Y-76.2
X123.439Y-110.998
X123.439Y-121.158
X126.233Y-80.772
X126.487Y-117.856
X126.995Y-101.386
X126.995Y-106.386
X126.995Y-108.966
X127.035Y-112.014
X128.265Y-89.408
X128.813Y-122.174
X130.885Y-86.36
X132.035Y-112.014
X132.583Y-92.71
X132.583Y-102.87
X133.813Y-122.174
X135.885Y-86.36
X136.647Y-117.856
X137.155Y-108.966
X138.171Y-112.776
X138.176Y-94.498
X138.176Y-102.118
X138.425Y-89.408
X140.203Y-118.404
X140.203Y-123.404
X140.716Y-94.498
X140.716Y-102.118
X143.256Y-94.498
X143.256Y-102.118
X143.759Y-81.026
X143.759Y-91.186
X145.796Y-94.498
X145.796Y-102.118
X146.299Y-118.15
X146.299Y-123.15
X148.331Y-112.776
X148.336Y-94.498
X148.336Y-102.118
X148.585Y-107.188
X150.876Y-94.498
X150.876Y-102.118
X153.416Y-94.498
X153.416Y-102.118
X153.665Y-112.776
X153.665Y-122.936
X157.734Y-93.766
X157.734Y-98.766
X158.745Y-107.188
X162.306Y-61.468
X162.306Y-71.628
X162.306Y-92.456
X162.306Y-100.076
X164.846Y-92.456
X164.846Y-100.076
X165.464Y-108.966
X165.608Y-116.118
X165.608Y-121.118
X166.41Y-61.214
X167.386Y-92.456
X167.386Y-100.076
X169.926Y-92.456
X169.926Y-100.076
X170.344Y-108.966
X170.434Y-116.118
X170.434Y-121.118
X171.41Y-61.214
X172.466Y-92.456
X172.466Y-100.076
X175.006Y-92.456
X175.006Y-100.076
X177.546Y-92.456
X177.546Y-100.076
X180.086Y-92.456
X180.086Y-100.076
X182.626Y-92.456
X182.626Y-100.076
X185.166Y-92.456
X185.166Y-100.076
X200.655Y-70.094
X200.655Y-77.714
X200.655Y-108.448
X200.655Y-116.068
X203.195Y-70.094
X203.195Y-77.714
X203.195Y-108.448
X203.195Y-116.068
X205.735Y-70.094
X205.735Y-77.714
X205.735Y-108.448
X205.735Y-116.068
X208.275Y-70.094
X208.275Y-77.714
X208.275Y-108.448
X208.275Y-116.068
X210.815Y-70.094
X210.815Y-77.714
X210.815Y-108.448
X210.815Y-116.068
X213.355Y-70.094
X213.355Y-77.714
X213.355Y-108.448
X213.355Y-116.068
X215.895Y-70.094
X215.895Y-77.714
X215.895Y-108.448
X215.895Y-116.068
T3
X117.851Y-86.873
X117.851Y-89.413
X125.725Y-70.617
X125.725Y-73.157
X166.914Y-65.584
X166.914Y-72.084
X167.386Y-80.01
X167.386Y-82.55
X167.386Y-85.09
X171.414Y-65.584
X171.414Y-72.084
X189.738Y-105.156
X189.753Y-65.278
X189.753Y-70.866
X189.753Y-77.47
X189.753Y-83.312
X189.753Y-111.506
X189.768Y-117.602
X189.768Y-123.19
X192.278Y-105.156
X192.293Y-65.278
X192.293Y-70.866
X192.293Y-77.47
X192.293Y-83.312
X192.293Y-111.506
X192.308Y-117.602
X192.308Y-123.19
X194.818Y-105.156
X194.833Y-65.278
X194.833Y-70.866
X194.833Y-77.47
X194.833Y-83.312
X194.833Y-111.506
X194.848Y-117.602
X194.848Y-123.19
X224.536Y-80.518
X224.536Y-83.058
X224.536Y-85.598
X224.536Y-88.138
X224.536Y-90.678
X224.536Y-93.218
X224.536Y-95.758
X224.536Y-98.298
X224.536Y-100.838
X224.536Y-103.378
T4
X163.83Y-74.93
T0
M30
