%FSLAX45Y45*%
G04 Gerber Fmt 4.5, Leading zero omitted, Abs format (unit mm)*
G04 Created by KiCad (PCBNEW (6.0.0)) date 2022-01-24 17:50:58*
%MOMM*%
%LPD*%
G01*
G04 APERTURE LIST*
%TA.AperFunction,Profile*%
%ADD10C,0.100000*%
%TD*%
%ADD11C,0.200000*%
%ADD12C,0.040000*%
%ADD13C,0.080000*%
%ADD14C,0.100000*%
%ADD15C,0.120000*%
G04 APERTURE END LIST*
D10*
X11125200Y-12446000D02*
G75*
G03*
X11506200Y-12827000I381000J0D01*
G01*
X23749000Y-12446000D02*
X23749000Y-6096000D01*
X11506200Y-5715000D02*
X23368000Y-5715000D01*
X11506200Y-5715000D02*
G75*
G03*
X11125200Y-6096000I0J-381000D01*
G01*
X23368000Y-12827000D02*
G75*
G03*
X23749000Y-12446000I0J381000D01*
G01*
X11125200Y-6096000D02*
X11125200Y-12446000D01*
X11506200Y-12827000D02*
X23368000Y-12827000D01*
X23749000Y-6096000D02*
G75*
G03*
X23368000Y-5715000I-381000J0D01*
G01*
D11*
D12*
X15524800Y-8539800D02*
X15564800Y-8579800D01*
X15564800Y-8539800D02*
X15524800Y-8579800D01*
X16185200Y-8285800D02*
X16225200Y-8325800D01*
X16225200Y-8285800D02*
X16185200Y-8325800D01*
X21925600Y-6457000D02*
X21965600Y-6497000D01*
X21965600Y-6457000D02*
X21925600Y-6497000D01*
X21951000Y-7523800D02*
X21991000Y-7563800D01*
X21991000Y-7523800D02*
X21951000Y-7563800D01*
X22814600Y-6457000D02*
X22854600Y-6497000D01*
X22854600Y-6457000D02*
X22814600Y-6497000D01*
X22840000Y-7523800D02*
X22880000Y-7563800D01*
X22880000Y-7523800D02*
X22840000Y-7563800D01*
D13*
X11606589Y-7620000D02*
G75*
G03*
X11606589Y-7620000I-40000J0D01*
G01*
X11647300Y-8077200D02*
G75*
G03*
X11647300Y-8077200I-40000J0D01*
G01*
X11752100Y-7162800D02*
G75*
G03*
X11752100Y-7162800I-40000J0D01*
G01*
X11875900Y-10722800D02*
G75*
G03*
X11875900Y-10722800I-40000J0D01*
G01*
X11875900Y-11222800D02*
G75*
G03*
X11875900Y-11222800I-40000J0D01*
G01*
X11952100Y-7162800D02*
G75*
G03*
X11952100Y-7162800I-40000J0D01*
G01*
X12106589Y-7620000D02*
G75*
G03*
X12106589Y-7620000I-40000J0D01*
G01*
X12383900Y-11099800D02*
G75*
G03*
X12383900Y-11099800I-40000J0D01*
G01*
X12383900Y-12115800D02*
G75*
G03*
X12383900Y-12115800I-40000J0D01*
G01*
X12663300Y-8077200D02*
G75*
G03*
X12663300Y-8077200I-40000J0D01*
G01*
X12688700Y-11785600D02*
G75*
G03*
X12688700Y-11785600I-40000J0D01*
G01*
X12739500Y-10138600D02*
G75*
G03*
X12739500Y-10138600I-40000J0D01*
G01*
X12739500Y-10638600D02*
G75*
G03*
X12739500Y-10638600I-40000J0D01*
G01*
X12739500Y-10896600D02*
G75*
G03*
X12739500Y-10896600I-40000J0D01*
G01*
X12743500Y-11201400D02*
G75*
G03*
X12743500Y-11201400I-40000J0D01*
G01*
X12866500Y-8940800D02*
G75*
G03*
X12866500Y-8940800I-40000J0D01*
G01*
X12921300Y-12217400D02*
G75*
G03*
X12921300Y-12217400I-40000J0D01*
G01*
X13128500Y-8636000D02*
G75*
G03*
X13128500Y-8636000I-40000J0D01*
G01*
X13243500Y-11201400D02*
G75*
G03*
X13243500Y-11201400I-40000J0D01*
G01*
X13298300Y-9271000D02*
G75*
G03*
X13298300Y-9271000I-40000J0D01*
G01*
X13298300Y-10287000D02*
G75*
G03*
X13298300Y-10287000I-40000J0D01*
G01*
X13421300Y-12217400D02*
G75*
G03*
X13421300Y-12217400I-40000J0D01*
G01*
X13628500Y-8636000D02*
G75*
G03*
X13628500Y-8636000I-40000J0D01*
G01*
X13704700Y-11785600D02*
G75*
G03*
X13704700Y-11785600I-40000J0D01*
G01*
X13755500Y-10896600D02*
G75*
G03*
X13755500Y-10896600I-40000J0D01*
G01*
X13857100Y-11277600D02*
G75*
G03*
X13857100Y-11277600I-40000J0D01*
G01*
X13857600Y-9449800D02*
G75*
G03*
X13857600Y-9449800I-40000J0D01*
G01*
X13857600Y-10211800D02*
G75*
G03*
X13857600Y-10211800I-40000J0D01*
G01*
X13882500Y-8940800D02*
G75*
G03*
X13882500Y-8940800I-40000J0D01*
G01*
X14060300Y-11840400D02*
G75*
G03*
X14060300Y-11840400I-40000J0D01*
G01*
X14060300Y-12340400D02*
G75*
G03*
X14060300Y-12340400I-40000J0D01*
G01*
X14111600Y-9449800D02*
G75*
G03*
X14111600Y-9449800I-40000J0D01*
G01*
X14111600Y-10211800D02*
G75*
G03*
X14111600Y-10211800I-40000J0D01*
G01*
X14365600Y-9449800D02*
G75*
G03*
X14365600Y-9449800I-40000J0D01*
G01*
X14365600Y-10211800D02*
G75*
G03*
X14365600Y-10211800I-40000J0D01*
G01*
X14415900Y-8102600D02*
G75*
G03*
X14415900Y-8102600I-40000J0D01*
G01*
X14415900Y-9118600D02*
G75*
G03*
X14415900Y-9118600I-40000J0D01*
G01*
X14619600Y-9449800D02*
G75*
G03*
X14619600Y-9449800I-40000J0D01*
G01*
X14619600Y-10211800D02*
G75*
G03*
X14619600Y-10211800I-40000J0D01*
G01*
X14669900Y-11815000D02*
G75*
G03*
X14669900Y-11815000I-40000J0D01*
G01*
X14669900Y-12315000D02*
G75*
G03*
X14669900Y-12315000I-40000J0D01*
G01*
X14873100Y-11277600D02*
G75*
G03*
X14873100Y-11277600I-40000J0D01*
G01*
X14873600Y-9449800D02*
G75*
G03*
X14873600Y-9449800I-40000J0D01*
G01*
X14873600Y-10211800D02*
G75*
G03*
X14873600Y-10211800I-40000J0D01*
G01*
X14898500Y-10718800D02*
G75*
G03*
X14898500Y-10718800I-40000J0D01*
G01*
X15127600Y-9449800D02*
G75*
G03*
X15127600Y-9449800I-40000J0D01*
G01*
X15127600Y-10211800D02*
G75*
G03*
X15127600Y-10211800I-40000J0D01*
G01*
X15381600Y-9449800D02*
G75*
G03*
X15381600Y-9449800I-40000J0D01*
G01*
X15381600Y-10211800D02*
G75*
G03*
X15381600Y-10211800I-40000J0D01*
G01*
X15406500Y-11277600D02*
G75*
G03*
X15406500Y-11277600I-40000J0D01*
G01*
X15406500Y-12293600D02*
G75*
G03*
X15406500Y-12293600I-40000J0D01*
G01*
X15813400Y-9376600D02*
G75*
G03*
X15813400Y-9376600I-40000J0D01*
G01*
X15813400Y-9876600D02*
G75*
G03*
X15813400Y-9876600I-40000J0D01*
G01*
X15914500Y-10718800D02*
G75*
G03*
X15914500Y-10718800I-40000J0D01*
G01*
X16270600Y-6146800D02*
G75*
G03*
X16270600Y-6146800I-40000J0D01*
G01*
X16270600Y-7162800D02*
G75*
G03*
X16270600Y-7162800I-40000J0D01*
G01*
X16270600Y-9245600D02*
G75*
G03*
X16270600Y-9245600I-40000J0D01*
G01*
X16270600Y-10007600D02*
G75*
G03*
X16270600Y-10007600I-40000J0D01*
G01*
X16524600Y-9245600D02*
G75*
G03*
X16524600Y-9245600I-40000J0D01*
G01*
X16524600Y-10007600D02*
G75*
G03*
X16524600Y-10007600I-40000J0D01*
G01*
X16586400Y-10896600D02*
G75*
G03*
X16586400Y-10896600I-40000J0D01*
G01*
X16600800Y-11611800D02*
G75*
G03*
X16600800Y-11611800I-40000J0D01*
G01*
X16600800Y-12111800D02*
G75*
G03*
X16600800Y-12111800I-40000J0D01*
G01*
X16681000Y-6121400D02*
G75*
G03*
X16681000Y-6121400I-40000J0D01*
G01*
X16778600Y-9245600D02*
G75*
G03*
X16778600Y-9245600I-40000J0D01*
G01*
X16778600Y-10007600D02*
G75*
G03*
X16778600Y-10007600I-40000J0D01*
G01*
X17032600Y-9245600D02*
G75*
G03*
X17032600Y-9245600I-40000J0D01*
G01*
X17032600Y-10007600D02*
G75*
G03*
X17032600Y-10007600I-40000J0D01*
G01*
X17074400Y-10896600D02*
G75*
G03*
X17074400Y-10896600I-40000J0D01*
G01*
X17083400Y-11611800D02*
G75*
G03*
X17083400Y-11611800I-40000J0D01*
G01*
X17083400Y-12111800D02*
G75*
G03*
X17083400Y-12111800I-40000J0D01*
G01*
X17181000Y-6121400D02*
G75*
G03*
X17181000Y-6121400I-40000J0D01*
G01*
X17286600Y-9245600D02*
G75*
G03*
X17286600Y-9245600I-40000J0D01*
G01*
X17286600Y-10007600D02*
G75*
G03*
X17286600Y-10007600I-40000J0D01*
G01*
X17540600Y-9245600D02*
G75*
G03*
X17540600Y-9245600I-40000J0D01*
G01*
X17540600Y-10007600D02*
G75*
G03*
X17540600Y-10007600I-40000J0D01*
G01*
X17794600Y-9245600D02*
G75*
G03*
X17794600Y-9245600I-40000J0D01*
G01*
X17794600Y-10007600D02*
G75*
G03*
X17794600Y-10007600I-40000J0D01*
G01*
X18048600Y-9245600D02*
G75*
G03*
X18048600Y-9245600I-40000J0D01*
G01*
X18048600Y-10007600D02*
G75*
G03*
X18048600Y-10007600I-40000J0D01*
G01*
X18302600Y-9245600D02*
G75*
G03*
X18302600Y-9245600I-40000J0D01*
G01*
X18302600Y-10007600D02*
G75*
G03*
X18302600Y-10007600I-40000J0D01*
G01*
X18556600Y-9245600D02*
G75*
G03*
X18556600Y-9245600I-40000J0D01*
G01*
X18556600Y-10007600D02*
G75*
G03*
X18556600Y-10007600I-40000J0D01*
G01*
X20105500Y-7009400D02*
G75*
G03*
X20105500Y-7009400I-40000J0D01*
G01*
X20105500Y-7771400D02*
G75*
G03*
X20105500Y-7771400I-40000J0D01*
G01*
X20105500Y-10844800D02*
G75*
G03*
X20105500Y-10844800I-40000J0D01*
G01*
X20105500Y-11606800D02*
G75*
G03*
X20105500Y-11606800I-40000J0D01*
G01*
X20359500Y-7009400D02*
G75*
G03*
X20359500Y-7009400I-40000J0D01*
G01*
X20359500Y-7771400D02*
G75*
G03*
X20359500Y-7771400I-40000J0D01*
G01*
X20359500Y-10844800D02*
G75*
G03*
X20359500Y-10844800I-40000J0D01*
G01*
X20359500Y-11606800D02*
G75*
G03*
X20359500Y-11606800I-40000J0D01*
G01*
X20613500Y-7009400D02*
G75*
G03*
X20613500Y-7009400I-40000J0D01*
G01*
X20613500Y-7771400D02*
G75*
G03*
X20613500Y-7771400I-40000J0D01*
G01*
X20613500Y-10844800D02*
G75*
G03*
X20613500Y-10844800I-40000J0D01*
G01*
X20613500Y-11606800D02*
G75*
G03*
X20613500Y-11606800I-40000J0D01*
G01*
X20867500Y-7009400D02*
G75*
G03*
X20867500Y-7009400I-40000J0D01*
G01*
X20867500Y-7771400D02*
G75*
G03*
X20867500Y-7771400I-40000J0D01*
G01*
X20867500Y-10844800D02*
G75*
G03*
X20867500Y-10844800I-40000J0D01*
G01*
X20867500Y-11606800D02*
G75*
G03*
X20867500Y-11606800I-40000J0D01*
G01*
X21121500Y-7009400D02*
G75*
G03*
X21121500Y-7009400I-40000J0D01*
G01*
X21121500Y-7771400D02*
G75*
G03*
X21121500Y-7771400I-40000J0D01*
G01*
X21121500Y-10844800D02*
G75*
G03*
X21121500Y-10844800I-40000J0D01*
G01*
X21121500Y-11606800D02*
G75*
G03*
X21121500Y-11606800I-40000J0D01*
G01*
X21375500Y-7009400D02*
G75*
G03*
X21375500Y-7009400I-40000J0D01*
G01*
X21375500Y-7771400D02*
G75*
G03*
X21375500Y-7771400I-40000J0D01*
G01*
X21375500Y-10844800D02*
G75*
G03*
X21375500Y-10844800I-40000J0D01*
G01*
X21375500Y-11606800D02*
G75*
G03*
X21375500Y-11606800I-40000J0D01*
G01*
X21629500Y-7009400D02*
G75*
G03*
X21629500Y-7009400I-40000J0D01*
G01*
X21629500Y-7771400D02*
G75*
G03*
X21629500Y-7771400I-40000J0D01*
G01*
X21629500Y-10844800D02*
G75*
G03*
X21629500Y-10844800I-40000J0D01*
G01*
X21629500Y-11606800D02*
G75*
G03*
X21629500Y-11606800I-40000J0D01*
G01*
D14*
X11785100Y-8637300D02*
X11785100Y-8737300D01*
X11735100Y-8687300D02*
X11835100Y-8687300D01*
X11785100Y-8891300D02*
X11785100Y-8991300D01*
X11735100Y-8941300D02*
X11835100Y-8941300D01*
X12572500Y-7011700D02*
X12572500Y-7111700D01*
X12522500Y-7061700D02*
X12622500Y-7061700D01*
X12572500Y-7265700D02*
X12572500Y-7365700D01*
X12522500Y-7315700D02*
X12622500Y-7315700D01*
X16691400Y-6508400D02*
X16691400Y-6608400D01*
X16641400Y-6558400D02*
X16741400Y-6558400D01*
X16691400Y-7158400D02*
X16691400Y-7258400D01*
X16641400Y-7208400D02*
X16741400Y-7208400D01*
X16738600Y-7951000D02*
X16738600Y-8051000D01*
X16688600Y-8001000D02*
X16788600Y-8001000D01*
X16738600Y-8205000D02*
X16738600Y-8305000D01*
X16688600Y-8255000D02*
X16788600Y-8255000D01*
X16738600Y-8459000D02*
X16738600Y-8559000D01*
X16688600Y-8509000D02*
X16788600Y-8509000D01*
X17141400Y-6508400D02*
X17141400Y-6608400D01*
X17091400Y-6558400D02*
X17191400Y-6558400D01*
X17141400Y-7158400D02*
X17141400Y-7258400D01*
X17091400Y-7208400D02*
X17191400Y-7208400D01*
X18973800Y-10465600D02*
X18973800Y-10565600D01*
X18923800Y-10515600D02*
X19023800Y-10515600D01*
X18975300Y-6477800D02*
X18975300Y-6577800D01*
X18925300Y-6527800D02*
X19025300Y-6527800D01*
X18975300Y-7036600D02*
X18975300Y-7136600D01*
X18925300Y-7086600D02*
X19025300Y-7086600D01*
X18975300Y-7697000D02*
X18975300Y-7797000D01*
X18925300Y-7747000D02*
X19025300Y-7747000D01*
X18975300Y-8281200D02*
X18975300Y-8381200D01*
X18925300Y-8331200D02*
X19025300Y-8331200D01*
X18975300Y-11100600D02*
X18975300Y-11200600D01*
X18925300Y-11150600D02*
X19025300Y-11150600D01*
X18976800Y-11710200D02*
X18976800Y-11810200D01*
X18926800Y-11760200D02*
X19026800Y-11760200D01*
X18976800Y-12269000D02*
X18976800Y-12369000D01*
X18926800Y-12319000D02*
X19026800Y-12319000D01*
X19227800Y-10465600D02*
X19227800Y-10565600D01*
X19177800Y-10515600D02*
X19277800Y-10515600D01*
X19229300Y-6477800D02*
X19229300Y-6577800D01*
X19179300Y-6527800D02*
X19279300Y-6527800D01*
X19229300Y-7036600D02*
X19229300Y-7136600D01*
X19179300Y-7086600D02*
X19279300Y-7086600D01*
X19229300Y-7697000D02*
X19229300Y-7797000D01*
X19179300Y-7747000D02*
X19279300Y-7747000D01*
X19229300Y-8281200D02*
X19229300Y-8381200D01*
X19179300Y-8331200D02*
X19279300Y-8331200D01*
X19229300Y-11100600D02*
X19229300Y-11200600D01*
X19179300Y-11150600D02*
X19279300Y-11150600D01*
X19230800Y-11710200D02*
X19230800Y-11810200D01*
X19180800Y-11760200D02*
X19280800Y-11760200D01*
X19230800Y-12269000D02*
X19230800Y-12369000D01*
X19180800Y-12319000D02*
X19280800Y-12319000D01*
X19481800Y-10465600D02*
X19481800Y-10565600D01*
X19431800Y-10515600D02*
X19531800Y-10515600D01*
X19483300Y-6477800D02*
X19483300Y-6577800D01*
X19433300Y-6527800D02*
X19533300Y-6527800D01*
X19483300Y-7036600D02*
X19483300Y-7136600D01*
X19433300Y-7086600D02*
X19533300Y-7086600D01*
X19483300Y-7697000D02*
X19483300Y-7797000D01*
X19433300Y-7747000D02*
X19533300Y-7747000D01*
X19483300Y-8281200D02*
X19483300Y-8381200D01*
X19433300Y-8331200D02*
X19533300Y-8331200D01*
X19483300Y-11100600D02*
X19483300Y-11200600D01*
X19433300Y-11150600D02*
X19533300Y-11150600D01*
X19484800Y-11710200D02*
X19484800Y-11810200D01*
X19434800Y-11760200D02*
X19534800Y-11760200D01*
X19484800Y-12269000D02*
X19484800Y-12369000D01*
X19434800Y-12319000D02*
X19534800Y-12319000D01*
X22453600Y-8001800D02*
X22453600Y-8101800D01*
X22403600Y-8051800D02*
X22503600Y-8051800D01*
X22453600Y-8255800D02*
X22453600Y-8355800D01*
X22403600Y-8305800D02*
X22503600Y-8305800D01*
X22453600Y-8509800D02*
X22453600Y-8609800D01*
X22403600Y-8559800D02*
X22503600Y-8559800D01*
X22453600Y-8763800D02*
X22453600Y-8863800D01*
X22403600Y-8813800D02*
X22503600Y-8813800D01*
X22453600Y-9017800D02*
X22453600Y-9117800D01*
X22403600Y-9067800D02*
X22503600Y-9067800D01*
X22453600Y-9271800D02*
X22453600Y-9371800D01*
X22403600Y-9321800D02*
X22503600Y-9321800D01*
X22453600Y-9525800D02*
X22453600Y-9625800D01*
X22403600Y-9575800D02*
X22503600Y-9575800D01*
X22453600Y-9779800D02*
X22453600Y-9879800D01*
X22403600Y-9829800D02*
X22503600Y-9829800D01*
X22453600Y-10033800D02*
X22453600Y-10133800D01*
X22403600Y-10083800D02*
X22503600Y-10083800D01*
X22453600Y-10287800D02*
X22453600Y-10387800D01*
X22403600Y-10337800D02*
X22503600Y-10337800D01*
D15*
X16425427Y-7535427D02*
X16425427Y-7450573D01*
X16340573Y-7450573D01*
X16340573Y-7535427D01*
X16425427Y-7535427D01*
D11*
X11377819Y-13142476D02*
X11377819Y-12942476D01*
X11425438Y-12942476D01*
X11454009Y-12952000D01*
X11473057Y-12971048D01*
X11482581Y-12990095D01*
X11492105Y-13028190D01*
X11492105Y-13056762D01*
X11482581Y-13094857D01*
X11473057Y-13113905D01*
X11454009Y-13132952D01*
X11425438Y-13142476D01*
X11377819Y-13142476D01*
X11577819Y-13142476D02*
X11577819Y-13009143D01*
X11577819Y-13047238D02*
X11587343Y-13028190D01*
X11596867Y-13018667D01*
X11615914Y-13009143D01*
X11634962Y-13009143D01*
X11701628Y-13142476D02*
X11701628Y-13009143D01*
X11701628Y-12942476D02*
X11692105Y-12952000D01*
X11701628Y-12961524D01*
X11711152Y-12952000D01*
X11701628Y-12942476D01*
X11701628Y-12961524D01*
X11825438Y-13142476D02*
X11806390Y-13132952D01*
X11796867Y-13113905D01*
X11796867Y-12942476D01*
X11930200Y-13142476D02*
X11911152Y-13132952D01*
X11901628Y-13113905D01*
X11901628Y-12942476D01*
X12158771Y-13142476D02*
X12158771Y-12942476D01*
X12225438Y-13085333D01*
X12292105Y-12942476D01*
X12292105Y-13142476D01*
X12473057Y-13142476D02*
X12473057Y-13037714D01*
X12463533Y-13018667D01*
X12444486Y-13009143D01*
X12406390Y-13009143D01*
X12387343Y-13018667D01*
X12473057Y-13132952D02*
X12454009Y-13142476D01*
X12406390Y-13142476D01*
X12387343Y-13132952D01*
X12377819Y-13113905D01*
X12377819Y-13094857D01*
X12387343Y-13075809D01*
X12406390Y-13066286D01*
X12454009Y-13066286D01*
X12473057Y-13056762D01*
X12568295Y-13009143D02*
X12568295Y-13209143D01*
X12568295Y-13018667D02*
X12587343Y-13009143D01*
X12625438Y-13009143D01*
X12644486Y-13018667D01*
X12654009Y-13028190D01*
X12663533Y-13047238D01*
X12663533Y-13104381D01*
X12654009Y-13123428D01*
X12644486Y-13132952D01*
X12625438Y-13142476D01*
X12587343Y-13142476D01*
X12568295Y-13132952D01*
X12749248Y-13123428D02*
X12758771Y-13132952D01*
X12749248Y-13142476D01*
X12739724Y-13132952D01*
X12749248Y-13123428D01*
X12749248Y-13142476D01*
X12749248Y-13018667D02*
X12758771Y-13028190D01*
X12749248Y-13037714D01*
X12739724Y-13028190D01*
X12749248Y-13018667D01*
X12749248Y-13037714D01*
D12*
X11080200Y-13452000D02*
X11120200Y-13492000D01*
X11120200Y-13452000D02*
X11080200Y-13492000D01*
D11*
X11415914Y-13362476D02*
X11434962Y-13362476D01*
X11454009Y-13372000D01*
X11463533Y-13381524D01*
X11473057Y-13400571D01*
X11482581Y-13438667D01*
X11482581Y-13486286D01*
X11473057Y-13524381D01*
X11463533Y-13543428D01*
X11454009Y-13552952D01*
X11434962Y-13562476D01*
X11415914Y-13562476D01*
X11396867Y-13552952D01*
X11387343Y-13543428D01*
X11377819Y-13524381D01*
X11368295Y-13486286D01*
X11368295Y-13438667D01*
X11377819Y-13400571D01*
X11387343Y-13381524D01*
X11396867Y-13372000D01*
X11415914Y-13362476D01*
X11568295Y-13543428D02*
X11577819Y-13552952D01*
X11568295Y-13562476D01*
X11558771Y-13552952D01*
X11568295Y-13543428D01*
X11568295Y-13562476D01*
X11749248Y-13429143D02*
X11749248Y-13562476D01*
X11701628Y-13352952D02*
X11654009Y-13495809D01*
X11777819Y-13495809D01*
X11892105Y-13362476D02*
X11911152Y-13362476D01*
X11930200Y-13372000D01*
X11939724Y-13381524D01*
X11949248Y-13400571D01*
X11958771Y-13438667D01*
X11958771Y-13486286D01*
X11949248Y-13524381D01*
X11939724Y-13543428D01*
X11930200Y-13552952D01*
X11911152Y-13562476D01*
X11892105Y-13562476D01*
X11873057Y-13552952D01*
X11863533Y-13543428D01*
X11854009Y-13524381D01*
X11844486Y-13486286D01*
X11844486Y-13438667D01*
X11854009Y-13400571D01*
X11863533Y-13381524D01*
X11873057Y-13372000D01*
X11892105Y-13362476D01*
X12082581Y-13362476D02*
X12101628Y-13362476D01*
X12120676Y-13372000D01*
X12130200Y-13381524D01*
X12139724Y-13400571D01*
X12149248Y-13438667D01*
X12149248Y-13486286D01*
X12139724Y-13524381D01*
X12130200Y-13543428D01*
X12120676Y-13552952D01*
X12101628Y-13562476D01*
X12082581Y-13562476D01*
X12063533Y-13552952D01*
X12054009Y-13543428D01*
X12044486Y-13524381D01*
X12034962Y-13486286D01*
X12034962Y-13438667D01*
X12044486Y-13400571D01*
X12054009Y-13381524D01*
X12063533Y-13372000D01*
X12082581Y-13362476D01*
X12234962Y-13562476D02*
X12234962Y-13429143D01*
X12234962Y-13448190D02*
X12244486Y-13438667D01*
X12263533Y-13429143D01*
X12292105Y-13429143D01*
X12311152Y-13438667D01*
X12320676Y-13457714D01*
X12320676Y-13562476D01*
X12320676Y-13457714D02*
X12330200Y-13438667D01*
X12349248Y-13429143D01*
X12377819Y-13429143D01*
X12396867Y-13438667D01*
X12406390Y-13457714D01*
X12406390Y-13562476D01*
X12501628Y-13562476D02*
X12501628Y-13429143D01*
X12501628Y-13448190D02*
X12511152Y-13438667D01*
X12530200Y-13429143D01*
X12558771Y-13429143D01*
X12577819Y-13438667D01*
X12587343Y-13457714D01*
X12587343Y-13562476D01*
X12587343Y-13457714D02*
X12596867Y-13438667D01*
X12615914Y-13429143D01*
X12644486Y-13429143D01*
X12663533Y-13438667D01*
X12673057Y-13457714D01*
X12673057Y-13562476D01*
X13063533Y-13352952D02*
X12892105Y-13610095D01*
X13320676Y-13362476D02*
X13339724Y-13362476D01*
X13358771Y-13372000D01*
X13368295Y-13381524D01*
X13377819Y-13400571D01*
X13387343Y-13438667D01*
X13387343Y-13486286D01*
X13377819Y-13524381D01*
X13368295Y-13543428D01*
X13358771Y-13552952D01*
X13339724Y-13562476D01*
X13320676Y-13562476D01*
X13301628Y-13552952D01*
X13292105Y-13543428D01*
X13282581Y-13524381D01*
X13273057Y-13486286D01*
X13273057Y-13438667D01*
X13282581Y-13400571D01*
X13292105Y-13381524D01*
X13301628Y-13372000D01*
X13320676Y-13362476D01*
X13473057Y-13543428D02*
X13482581Y-13552952D01*
X13473057Y-13562476D01*
X13463533Y-13552952D01*
X13473057Y-13543428D01*
X13473057Y-13562476D01*
X13606390Y-13362476D02*
X13625438Y-13362476D01*
X13644486Y-13372000D01*
X13654009Y-13381524D01*
X13663533Y-13400571D01*
X13673057Y-13438667D01*
X13673057Y-13486286D01*
X13663533Y-13524381D01*
X13654009Y-13543428D01*
X13644486Y-13552952D01*
X13625438Y-13562476D01*
X13606390Y-13562476D01*
X13587343Y-13552952D01*
X13577819Y-13543428D01*
X13568295Y-13524381D01*
X13558771Y-13486286D01*
X13558771Y-13438667D01*
X13568295Y-13400571D01*
X13577819Y-13381524D01*
X13587343Y-13372000D01*
X13606390Y-13362476D01*
X13863533Y-13562476D02*
X13749248Y-13562476D01*
X13806390Y-13562476D02*
X13806390Y-13362476D01*
X13787343Y-13391048D01*
X13768295Y-13410095D01*
X13749248Y-13419619D01*
X14044486Y-13362476D02*
X13949248Y-13362476D01*
X13939724Y-13457714D01*
X13949248Y-13448190D01*
X13968295Y-13438667D01*
X14015914Y-13438667D01*
X14034962Y-13448190D01*
X14044486Y-13457714D01*
X14054009Y-13476762D01*
X14054009Y-13524381D01*
X14044486Y-13543428D01*
X14034962Y-13552952D01*
X14015914Y-13562476D01*
X13968295Y-13562476D01*
X13949248Y-13552952D01*
X13939724Y-13543428D01*
X14120676Y-13362476D02*
X14254009Y-13362476D01*
X14168295Y-13562476D01*
X14320676Y-13362476D02*
X14320676Y-13400571D01*
X14396867Y-13362476D02*
X14396867Y-13400571D01*
X14692105Y-13638667D02*
X14682581Y-13629143D01*
X14663533Y-13600571D01*
X14654009Y-13581524D01*
X14644486Y-13552952D01*
X14634962Y-13505333D01*
X14634962Y-13467238D01*
X14644486Y-13419619D01*
X14654009Y-13391048D01*
X14663533Y-13372000D01*
X14682581Y-13343428D01*
X14692105Y-13333905D01*
X14854009Y-13362476D02*
X14815914Y-13362476D01*
X14796867Y-13372000D01*
X14787343Y-13381524D01*
X14768295Y-13410095D01*
X14758771Y-13448190D01*
X14758771Y-13524381D01*
X14768295Y-13543428D01*
X14777819Y-13552952D01*
X14796867Y-13562476D01*
X14834962Y-13562476D01*
X14854009Y-13552952D01*
X14863533Y-13543428D01*
X14873057Y-13524381D01*
X14873057Y-13476762D01*
X14863533Y-13457714D01*
X14854009Y-13448190D01*
X14834962Y-13438667D01*
X14796867Y-13438667D01*
X14777819Y-13448190D01*
X14768295Y-13457714D01*
X14758771Y-13476762D01*
X15111152Y-13562476D02*
X15111152Y-13362476D01*
X15196867Y-13562476D02*
X15196867Y-13457714D01*
X15187343Y-13438667D01*
X15168295Y-13429143D01*
X15139724Y-13429143D01*
X15120676Y-13438667D01*
X15111152Y-13448190D01*
X15320676Y-13562476D02*
X15301628Y-13552952D01*
X15292105Y-13543428D01*
X15282581Y-13524381D01*
X15282581Y-13467238D01*
X15292105Y-13448190D01*
X15301628Y-13438667D01*
X15320676Y-13429143D01*
X15349248Y-13429143D01*
X15368295Y-13438667D01*
X15377819Y-13448190D01*
X15387343Y-13467238D01*
X15387343Y-13524381D01*
X15377819Y-13543428D01*
X15368295Y-13552952D01*
X15349248Y-13562476D01*
X15320676Y-13562476D01*
X15501628Y-13562476D02*
X15482581Y-13552952D01*
X15473057Y-13533905D01*
X15473057Y-13362476D01*
X15654009Y-13552952D02*
X15634962Y-13562476D01*
X15596867Y-13562476D01*
X15577819Y-13552952D01*
X15568295Y-13533905D01*
X15568295Y-13457714D01*
X15577819Y-13438667D01*
X15596867Y-13429143D01*
X15634962Y-13429143D01*
X15654009Y-13438667D01*
X15663533Y-13457714D01*
X15663533Y-13476762D01*
X15568295Y-13495809D01*
X15739724Y-13552952D02*
X15758771Y-13562476D01*
X15796867Y-13562476D01*
X15815914Y-13552952D01*
X15825438Y-13533905D01*
X15825438Y-13524381D01*
X15815914Y-13505333D01*
X15796867Y-13495809D01*
X15768295Y-13495809D01*
X15749248Y-13486286D01*
X15739724Y-13467238D01*
X15739724Y-13457714D01*
X15749248Y-13438667D01*
X15768295Y-13429143D01*
X15796867Y-13429143D01*
X15815914Y-13438667D01*
X15892105Y-13638667D02*
X15901628Y-13629143D01*
X15920676Y-13600571D01*
X15930200Y-13581524D01*
X15939724Y-13552952D01*
X15949248Y-13505333D01*
X15949248Y-13467238D01*
X15939724Y-13419619D01*
X15930200Y-13391048D01*
X15920676Y-13372000D01*
X15901628Y-13343428D01*
X15892105Y-13333905D01*
D13*
X11120200Y-13736000D02*
G75*
G03*
X11120200Y-13736000I-40000J0D01*
G01*
D11*
X11415914Y-13626476D02*
X11434962Y-13626476D01*
X11454009Y-13636000D01*
X11463533Y-13645524D01*
X11473057Y-13664571D01*
X11482581Y-13702667D01*
X11482581Y-13750286D01*
X11473057Y-13788381D01*
X11463533Y-13807428D01*
X11454009Y-13816952D01*
X11434962Y-13826476D01*
X11415914Y-13826476D01*
X11396867Y-13816952D01*
X11387343Y-13807428D01*
X11377819Y-13788381D01*
X11368295Y-13750286D01*
X11368295Y-13702667D01*
X11377819Y-13664571D01*
X11387343Y-13645524D01*
X11396867Y-13636000D01*
X11415914Y-13626476D01*
X11568295Y-13807428D02*
X11577819Y-13816952D01*
X11568295Y-13826476D01*
X11558771Y-13816952D01*
X11568295Y-13807428D01*
X11568295Y-13826476D01*
X11692105Y-13712190D02*
X11673057Y-13702667D01*
X11663533Y-13693143D01*
X11654009Y-13674095D01*
X11654009Y-13664571D01*
X11663533Y-13645524D01*
X11673057Y-13636000D01*
X11692105Y-13626476D01*
X11730200Y-13626476D01*
X11749248Y-13636000D01*
X11758771Y-13645524D01*
X11768295Y-13664571D01*
X11768295Y-13674095D01*
X11758771Y-13693143D01*
X11749248Y-13702667D01*
X11730200Y-13712190D01*
X11692105Y-13712190D01*
X11673057Y-13721714D01*
X11663533Y-13731238D01*
X11654009Y-13750286D01*
X11654009Y-13788381D01*
X11663533Y-13807428D01*
X11673057Y-13816952D01*
X11692105Y-13826476D01*
X11730200Y-13826476D01*
X11749248Y-13816952D01*
X11758771Y-13807428D01*
X11768295Y-13788381D01*
X11768295Y-13750286D01*
X11758771Y-13731238D01*
X11749248Y-13721714D01*
X11730200Y-13712190D01*
X11892105Y-13626476D02*
X11911152Y-13626476D01*
X11930200Y-13636000D01*
X11939724Y-13645524D01*
X11949248Y-13664571D01*
X11958771Y-13702667D01*
X11958771Y-13750286D01*
X11949248Y-13788381D01*
X11939724Y-13807428D01*
X11930200Y-13816952D01*
X11911152Y-13826476D01*
X11892105Y-13826476D01*
X11873057Y-13816952D01*
X11863533Y-13807428D01*
X11854009Y-13788381D01*
X11844486Y-13750286D01*
X11844486Y-13702667D01*
X11854009Y-13664571D01*
X11863533Y-13645524D01*
X11873057Y-13636000D01*
X11892105Y-13626476D01*
X12082581Y-13626476D02*
X12101628Y-13626476D01*
X12120676Y-13636000D01*
X12130200Y-13645524D01*
X12139724Y-13664571D01*
X12149248Y-13702667D01*
X12149248Y-13750286D01*
X12139724Y-13788381D01*
X12130200Y-13807428D01*
X12120676Y-13816952D01*
X12101628Y-13826476D01*
X12082581Y-13826476D01*
X12063533Y-13816952D01*
X12054009Y-13807428D01*
X12044486Y-13788381D01*
X12034962Y-13750286D01*
X12034962Y-13702667D01*
X12044486Y-13664571D01*
X12054009Y-13645524D01*
X12063533Y-13636000D01*
X12082581Y-13626476D01*
X12234962Y-13826476D02*
X12234962Y-13693143D01*
X12234962Y-13712190D02*
X12244486Y-13702667D01*
X12263533Y-13693143D01*
X12292105Y-13693143D01*
X12311152Y-13702667D01*
X12320676Y-13721714D01*
X12320676Y-13826476D01*
X12320676Y-13721714D02*
X12330200Y-13702667D01*
X12349248Y-13693143D01*
X12377819Y-13693143D01*
X12396867Y-13702667D01*
X12406390Y-13721714D01*
X12406390Y-13826476D01*
X12501628Y-13826476D02*
X12501628Y-13693143D01*
X12501628Y-13712190D02*
X12511152Y-13702667D01*
X12530200Y-13693143D01*
X12558771Y-13693143D01*
X12577819Y-13702667D01*
X12587343Y-13721714D01*
X12587343Y-13826476D01*
X12587343Y-13721714D02*
X12596867Y-13702667D01*
X12615914Y-13693143D01*
X12644486Y-13693143D01*
X12663533Y-13702667D01*
X12673057Y-13721714D01*
X12673057Y-13826476D01*
X13063533Y-13616952D02*
X12892105Y-13874095D01*
X13320676Y-13626476D02*
X13339724Y-13626476D01*
X13358771Y-13636000D01*
X13368295Y-13645524D01*
X13377819Y-13664571D01*
X13387343Y-13702667D01*
X13387343Y-13750286D01*
X13377819Y-13788381D01*
X13368295Y-13807428D01*
X13358771Y-13816952D01*
X13339724Y-13826476D01*
X13320676Y-13826476D01*
X13301628Y-13816952D01*
X13292105Y-13807428D01*
X13282581Y-13788381D01*
X13273057Y-13750286D01*
X13273057Y-13702667D01*
X13282581Y-13664571D01*
X13292105Y-13645524D01*
X13301628Y-13636000D01*
X13320676Y-13626476D01*
X13473057Y-13807428D02*
X13482581Y-13816952D01*
X13473057Y-13826476D01*
X13463533Y-13816952D01*
X13473057Y-13807428D01*
X13473057Y-13826476D01*
X13606390Y-13626476D02*
X13625438Y-13626476D01*
X13644486Y-13636000D01*
X13654009Y-13645524D01*
X13663533Y-13664571D01*
X13673057Y-13702667D01*
X13673057Y-13750286D01*
X13663533Y-13788381D01*
X13654009Y-13807428D01*
X13644486Y-13816952D01*
X13625438Y-13826476D01*
X13606390Y-13826476D01*
X13587343Y-13816952D01*
X13577819Y-13807428D01*
X13568295Y-13788381D01*
X13558771Y-13750286D01*
X13558771Y-13702667D01*
X13568295Y-13664571D01*
X13577819Y-13645524D01*
X13587343Y-13636000D01*
X13606390Y-13626476D01*
X13739724Y-13626476D02*
X13863533Y-13626476D01*
X13796867Y-13702667D01*
X13825438Y-13702667D01*
X13844486Y-13712190D01*
X13854009Y-13721714D01*
X13863533Y-13740762D01*
X13863533Y-13788381D01*
X13854009Y-13807428D01*
X13844486Y-13816952D01*
X13825438Y-13826476D01*
X13768295Y-13826476D01*
X13749248Y-13816952D01*
X13739724Y-13807428D01*
X14054009Y-13826476D02*
X13939724Y-13826476D01*
X13996867Y-13826476D02*
X13996867Y-13626476D01*
X13977819Y-13655048D01*
X13958771Y-13674095D01*
X13939724Y-13683619D01*
X14234962Y-13626476D02*
X14139724Y-13626476D01*
X14130200Y-13721714D01*
X14139724Y-13712190D01*
X14158771Y-13702667D01*
X14206390Y-13702667D01*
X14225438Y-13712190D01*
X14234962Y-13721714D01*
X14244486Y-13740762D01*
X14244486Y-13788381D01*
X14234962Y-13807428D01*
X14225438Y-13816952D01*
X14206390Y-13826476D01*
X14158771Y-13826476D01*
X14139724Y-13816952D01*
X14130200Y-13807428D01*
X14320676Y-13626476D02*
X14320676Y-13664571D01*
X14396867Y-13626476D02*
X14396867Y-13664571D01*
X14692105Y-13902667D02*
X14682581Y-13893143D01*
X14663533Y-13864571D01*
X14654009Y-13845524D01*
X14644486Y-13816952D01*
X14634962Y-13769333D01*
X14634962Y-13731238D01*
X14644486Y-13683619D01*
X14654009Y-13655048D01*
X14663533Y-13636000D01*
X14682581Y-13607428D01*
X14692105Y-13597905D01*
X14873057Y-13826476D02*
X14758771Y-13826476D01*
X14815914Y-13826476D02*
X14815914Y-13626476D01*
X14796867Y-13655048D01*
X14777819Y-13674095D01*
X14758771Y-13683619D01*
X15063533Y-13826476D02*
X14949248Y-13826476D01*
X15006390Y-13826476D02*
X15006390Y-13626476D01*
X14987343Y-13655048D01*
X14968295Y-13674095D01*
X14949248Y-13683619D01*
X15139724Y-13645524D02*
X15149248Y-13636000D01*
X15168295Y-13626476D01*
X15215914Y-13626476D01*
X15234962Y-13636000D01*
X15244486Y-13645524D01*
X15254009Y-13664571D01*
X15254009Y-13683619D01*
X15244486Y-13712190D01*
X15130200Y-13826476D01*
X15254009Y-13826476D01*
X15492105Y-13826476D02*
X15492105Y-13626476D01*
X15577819Y-13826476D02*
X15577819Y-13721714D01*
X15568295Y-13702667D01*
X15549248Y-13693143D01*
X15520676Y-13693143D01*
X15501628Y-13702667D01*
X15492105Y-13712190D01*
X15701628Y-13826476D02*
X15682581Y-13816952D01*
X15673057Y-13807428D01*
X15663533Y-13788381D01*
X15663533Y-13731238D01*
X15673057Y-13712190D01*
X15682581Y-13702667D01*
X15701628Y-13693143D01*
X15730200Y-13693143D01*
X15749248Y-13702667D01*
X15758771Y-13712190D01*
X15768295Y-13731238D01*
X15768295Y-13788381D01*
X15758771Y-13807428D01*
X15749248Y-13816952D01*
X15730200Y-13826476D01*
X15701628Y-13826476D01*
X15882581Y-13826476D02*
X15863533Y-13816952D01*
X15854009Y-13797905D01*
X15854009Y-13626476D01*
X16034962Y-13816952D02*
X16015914Y-13826476D01*
X15977819Y-13826476D01*
X15958771Y-13816952D01*
X15949248Y-13797905D01*
X15949248Y-13721714D01*
X15958771Y-13702667D01*
X15977819Y-13693143D01*
X16015914Y-13693143D01*
X16034962Y-13702667D01*
X16044486Y-13721714D01*
X16044486Y-13740762D01*
X15949248Y-13759809D01*
X16120676Y-13816952D02*
X16139724Y-13826476D01*
X16177819Y-13826476D01*
X16196867Y-13816952D01*
X16206390Y-13797905D01*
X16206390Y-13788381D01*
X16196867Y-13769333D01*
X16177819Y-13759809D01*
X16149248Y-13759809D01*
X16130200Y-13750286D01*
X16120676Y-13731238D01*
X16120676Y-13721714D01*
X16130200Y-13702667D01*
X16149248Y-13693143D01*
X16177819Y-13693143D01*
X16196867Y-13702667D01*
X16273057Y-13902667D02*
X16282581Y-13893143D01*
X16301628Y-13864571D01*
X16311152Y-13845524D01*
X16320676Y-13816952D01*
X16330200Y-13769333D01*
X16330200Y-13731238D01*
X16320676Y-13683619D01*
X16311152Y-13655048D01*
X16301628Y-13636000D01*
X16282581Y-13607428D01*
X16273057Y-13597905D01*
D14*
X11070200Y-13950000D02*
X11070200Y-14050000D01*
X11020200Y-14000000D02*
X11120200Y-14000000D01*
D11*
X11482581Y-14090476D02*
X11368295Y-14090476D01*
X11425438Y-14090476D02*
X11425438Y-13890476D01*
X11406390Y-13919048D01*
X11387343Y-13938095D01*
X11368295Y-13947619D01*
X11568295Y-14071428D02*
X11577819Y-14080952D01*
X11568295Y-14090476D01*
X11558771Y-14080952D01*
X11568295Y-14071428D01*
X11568295Y-14090476D01*
X11701628Y-13890476D02*
X11720676Y-13890476D01*
X11739724Y-13900000D01*
X11749248Y-13909524D01*
X11758771Y-13928571D01*
X11768295Y-13966667D01*
X11768295Y-14014286D01*
X11758771Y-14052381D01*
X11749248Y-14071428D01*
X11739724Y-14080952D01*
X11720676Y-14090476D01*
X11701628Y-14090476D01*
X11682581Y-14080952D01*
X11673057Y-14071428D01*
X11663533Y-14052381D01*
X11654009Y-14014286D01*
X11654009Y-13966667D01*
X11663533Y-13928571D01*
X11673057Y-13909524D01*
X11682581Y-13900000D01*
X11701628Y-13890476D01*
X11892105Y-13890476D02*
X11911152Y-13890476D01*
X11930200Y-13900000D01*
X11939724Y-13909524D01*
X11949248Y-13928571D01*
X11958771Y-13966667D01*
X11958771Y-14014286D01*
X11949248Y-14052381D01*
X11939724Y-14071428D01*
X11930200Y-14080952D01*
X11911152Y-14090476D01*
X11892105Y-14090476D01*
X11873057Y-14080952D01*
X11863533Y-14071428D01*
X11854009Y-14052381D01*
X11844486Y-14014286D01*
X11844486Y-13966667D01*
X11854009Y-13928571D01*
X11863533Y-13909524D01*
X11873057Y-13900000D01*
X11892105Y-13890476D01*
X12082581Y-13890476D02*
X12101628Y-13890476D01*
X12120676Y-13900000D01*
X12130200Y-13909524D01*
X12139724Y-13928571D01*
X12149248Y-13966667D01*
X12149248Y-14014286D01*
X12139724Y-14052381D01*
X12130200Y-14071428D01*
X12120676Y-14080952D01*
X12101628Y-14090476D01*
X12082581Y-14090476D01*
X12063533Y-14080952D01*
X12054009Y-14071428D01*
X12044486Y-14052381D01*
X12034962Y-14014286D01*
X12034962Y-13966667D01*
X12044486Y-13928571D01*
X12054009Y-13909524D01*
X12063533Y-13900000D01*
X12082581Y-13890476D01*
X12234962Y-14090476D02*
X12234962Y-13957143D01*
X12234962Y-13976190D02*
X12244486Y-13966667D01*
X12263533Y-13957143D01*
X12292105Y-13957143D01*
X12311152Y-13966667D01*
X12320676Y-13985714D01*
X12320676Y-14090476D01*
X12320676Y-13985714D02*
X12330200Y-13966667D01*
X12349248Y-13957143D01*
X12377819Y-13957143D01*
X12396867Y-13966667D01*
X12406390Y-13985714D01*
X12406390Y-14090476D01*
X12501628Y-14090476D02*
X12501628Y-13957143D01*
X12501628Y-13976190D02*
X12511152Y-13966667D01*
X12530200Y-13957143D01*
X12558771Y-13957143D01*
X12577819Y-13966667D01*
X12587343Y-13985714D01*
X12587343Y-14090476D01*
X12587343Y-13985714D02*
X12596867Y-13966667D01*
X12615914Y-13957143D01*
X12644486Y-13957143D01*
X12663533Y-13966667D01*
X12673057Y-13985714D01*
X12673057Y-14090476D01*
X13063533Y-13880952D02*
X12892105Y-14138095D01*
X13320676Y-13890476D02*
X13339724Y-13890476D01*
X13358771Y-13900000D01*
X13368295Y-13909524D01*
X13377819Y-13928571D01*
X13387343Y-13966667D01*
X13387343Y-14014286D01*
X13377819Y-14052381D01*
X13368295Y-14071428D01*
X13358771Y-14080952D01*
X13339724Y-14090476D01*
X13320676Y-14090476D01*
X13301628Y-14080952D01*
X13292105Y-14071428D01*
X13282581Y-14052381D01*
X13273057Y-14014286D01*
X13273057Y-13966667D01*
X13282581Y-13928571D01*
X13292105Y-13909524D01*
X13301628Y-13900000D01*
X13320676Y-13890476D01*
X13473057Y-14071428D02*
X13482581Y-14080952D01*
X13473057Y-14090476D01*
X13463533Y-14080952D01*
X13473057Y-14071428D01*
X13473057Y-14090476D01*
X13606390Y-13890476D02*
X13625438Y-13890476D01*
X13644486Y-13900000D01*
X13654009Y-13909524D01*
X13663533Y-13928571D01*
X13673057Y-13966667D01*
X13673057Y-14014286D01*
X13663533Y-14052381D01*
X13654009Y-14071428D01*
X13644486Y-14080952D01*
X13625438Y-14090476D01*
X13606390Y-14090476D01*
X13587343Y-14080952D01*
X13577819Y-14071428D01*
X13568295Y-14052381D01*
X13558771Y-14014286D01*
X13558771Y-13966667D01*
X13568295Y-13928571D01*
X13577819Y-13909524D01*
X13587343Y-13900000D01*
X13606390Y-13890476D01*
X13739724Y-13890476D02*
X13863533Y-13890476D01*
X13796867Y-13966667D01*
X13825438Y-13966667D01*
X13844486Y-13976190D01*
X13854009Y-13985714D01*
X13863533Y-14004762D01*
X13863533Y-14052381D01*
X13854009Y-14071428D01*
X13844486Y-14080952D01*
X13825438Y-14090476D01*
X13768295Y-14090476D01*
X13749248Y-14080952D01*
X13739724Y-14071428D01*
X13958771Y-14090476D02*
X13996867Y-14090476D01*
X14015914Y-14080952D01*
X14025438Y-14071428D01*
X14044486Y-14042857D01*
X14054009Y-14004762D01*
X14054009Y-13928571D01*
X14044486Y-13909524D01*
X14034962Y-13900000D01*
X14015914Y-13890476D01*
X13977819Y-13890476D01*
X13958771Y-13900000D01*
X13949248Y-13909524D01*
X13939724Y-13928571D01*
X13939724Y-13976190D01*
X13949248Y-13995238D01*
X13958771Y-14004762D01*
X13977819Y-14014286D01*
X14015914Y-14014286D01*
X14034962Y-14004762D01*
X14044486Y-13995238D01*
X14054009Y-13976190D01*
X14225438Y-13957143D02*
X14225438Y-14090476D01*
X14177819Y-13880952D02*
X14130200Y-14023809D01*
X14254009Y-14023809D01*
X14320676Y-13890476D02*
X14320676Y-13928571D01*
X14396867Y-13890476D02*
X14396867Y-13928571D01*
X14692105Y-14166667D02*
X14682581Y-14157143D01*
X14663533Y-14128571D01*
X14654009Y-14109524D01*
X14644486Y-14080952D01*
X14634962Y-14033333D01*
X14634962Y-13995238D01*
X14644486Y-13947619D01*
X14654009Y-13919048D01*
X14663533Y-13900000D01*
X14682581Y-13871428D01*
X14692105Y-13861905D01*
X14854009Y-13957143D02*
X14854009Y-14090476D01*
X14806390Y-13880952D02*
X14758771Y-14023809D01*
X14882581Y-14023809D01*
X15054009Y-13890476D02*
X14958771Y-13890476D01*
X14949248Y-13985714D01*
X14958771Y-13976190D01*
X14977819Y-13966667D01*
X15025438Y-13966667D01*
X15044486Y-13976190D01*
X15054009Y-13985714D01*
X15063533Y-14004762D01*
X15063533Y-14052381D01*
X15054009Y-14071428D01*
X15044486Y-14080952D01*
X15025438Y-14090476D01*
X14977819Y-14090476D01*
X14958771Y-14080952D01*
X14949248Y-14071428D01*
X15301628Y-14090476D02*
X15301628Y-13890476D01*
X15387343Y-14090476D02*
X15387343Y-13985714D01*
X15377819Y-13966667D01*
X15358771Y-13957143D01*
X15330200Y-13957143D01*
X15311152Y-13966667D01*
X15301628Y-13976190D01*
X15511152Y-14090476D02*
X15492105Y-14080952D01*
X15482581Y-14071428D01*
X15473057Y-14052381D01*
X15473057Y-13995238D01*
X15482581Y-13976190D01*
X15492105Y-13966667D01*
X15511152Y-13957143D01*
X15539724Y-13957143D01*
X15558771Y-13966667D01*
X15568295Y-13976190D01*
X15577819Y-13995238D01*
X15577819Y-14052381D01*
X15568295Y-14071428D01*
X15558771Y-14080952D01*
X15539724Y-14090476D01*
X15511152Y-14090476D01*
X15692105Y-14090476D02*
X15673057Y-14080952D01*
X15663533Y-14061905D01*
X15663533Y-13890476D01*
X15844486Y-14080952D02*
X15825438Y-14090476D01*
X15787343Y-14090476D01*
X15768295Y-14080952D01*
X15758771Y-14061905D01*
X15758771Y-13985714D01*
X15768295Y-13966667D01*
X15787343Y-13957143D01*
X15825438Y-13957143D01*
X15844486Y-13966667D01*
X15854009Y-13985714D01*
X15854009Y-14004762D01*
X15758771Y-14023809D01*
X15930200Y-14080952D02*
X15949248Y-14090476D01*
X15987343Y-14090476D01*
X16006390Y-14080952D01*
X16015914Y-14061905D01*
X16015914Y-14052381D01*
X16006390Y-14033333D01*
X15987343Y-14023809D01*
X15958771Y-14023809D01*
X15939724Y-14014286D01*
X15930200Y-13995238D01*
X15930200Y-13985714D01*
X15939724Y-13966667D01*
X15958771Y-13957143D01*
X15987343Y-13957143D01*
X16006390Y-13966667D01*
X16082581Y-14166667D02*
X16092105Y-14157143D01*
X16111152Y-14128571D01*
X16120676Y-14109524D01*
X16130200Y-14080952D01*
X16139724Y-14033333D01*
X16139724Y-13995238D01*
X16130200Y-13947619D01*
X16120676Y-13919048D01*
X16111152Y-13900000D01*
X16092105Y-13871428D01*
X16082581Y-13861905D01*
D15*
X11102627Y-14306427D02*
X11102627Y-14221573D01*
X11017773Y-14221573D01*
X11017773Y-14306427D01*
X11102627Y-14306427D01*
D11*
X11482581Y-14354476D02*
X11368295Y-14354476D01*
X11425438Y-14354476D02*
X11425438Y-14154476D01*
X11406390Y-14183048D01*
X11387343Y-14202095D01*
X11368295Y-14211619D01*
X11568295Y-14335428D02*
X11577819Y-14344952D01*
X11568295Y-14354476D01*
X11558771Y-14344952D01*
X11568295Y-14335428D01*
X11568295Y-14354476D01*
X11654009Y-14173524D02*
X11663533Y-14164000D01*
X11682581Y-14154476D01*
X11730200Y-14154476D01*
X11749248Y-14164000D01*
X11758771Y-14173524D01*
X11768295Y-14192571D01*
X11768295Y-14211619D01*
X11758771Y-14240190D01*
X11644486Y-14354476D01*
X11768295Y-14354476D01*
X11892105Y-14154476D02*
X11911152Y-14154476D01*
X11930200Y-14164000D01*
X11939724Y-14173524D01*
X11949248Y-14192571D01*
X11958771Y-14230667D01*
X11958771Y-14278286D01*
X11949248Y-14316381D01*
X11939724Y-14335428D01*
X11930200Y-14344952D01*
X11911152Y-14354476D01*
X11892105Y-14354476D01*
X11873057Y-14344952D01*
X11863533Y-14335428D01*
X11854009Y-14316381D01*
X11844486Y-14278286D01*
X11844486Y-14230667D01*
X11854009Y-14192571D01*
X11863533Y-14173524D01*
X11873057Y-14164000D01*
X11892105Y-14154476D01*
X12082581Y-14154476D02*
X12101628Y-14154476D01*
X12120676Y-14164000D01*
X12130200Y-14173524D01*
X12139724Y-14192571D01*
X12149248Y-14230667D01*
X12149248Y-14278286D01*
X12139724Y-14316381D01*
X12130200Y-14335428D01*
X12120676Y-14344952D01*
X12101628Y-14354476D01*
X12082581Y-14354476D01*
X12063533Y-14344952D01*
X12054009Y-14335428D01*
X12044486Y-14316381D01*
X12034962Y-14278286D01*
X12034962Y-14230667D01*
X12044486Y-14192571D01*
X12054009Y-14173524D01*
X12063533Y-14164000D01*
X12082581Y-14154476D01*
X12234962Y-14354476D02*
X12234962Y-14221143D01*
X12234962Y-14240190D02*
X12244486Y-14230667D01*
X12263533Y-14221143D01*
X12292105Y-14221143D01*
X12311152Y-14230667D01*
X12320676Y-14249714D01*
X12320676Y-14354476D01*
X12320676Y-14249714D02*
X12330200Y-14230667D01*
X12349248Y-14221143D01*
X12377819Y-14221143D01*
X12396867Y-14230667D01*
X12406390Y-14249714D01*
X12406390Y-14354476D01*
X12501628Y-14354476D02*
X12501628Y-14221143D01*
X12501628Y-14240190D02*
X12511152Y-14230667D01*
X12530200Y-14221143D01*
X12558771Y-14221143D01*
X12577819Y-14230667D01*
X12587343Y-14249714D01*
X12587343Y-14354476D01*
X12587343Y-14249714D02*
X12596867Y-14230667D01*
X12615914Y-14221143D01*
X12644486Y-14221143D01*
X12663533Y-14230667D01*
X12673057Y-14249714D01*
X12673057Y-14354476D01*
X13063533Y-14144952D02*
X12892105Y-14402095D01*
X13320676Y-14154476D02*
X13339724Y-14154476D01*
X13358771Y-14164000D01*
X13368295Y-14173524D01*
X13377819Y-14192571D01*
X13387343Y-14230667D01*
X13387343Y-14278286D01*
X13377819Y-14316381D01*
X13368295Y-14335428D01*
X13358771Y-14344952D01*
X13339724Y-14354476D01*
X13320676Y-14354476D01*
X13301628Y-14344952D01*
X13292105Y-14335428D01*
X13282581Y-14316381D01*
X13273057Y-14278286D01*
X13273057Y-14230667D01*
X13282581Y-14192571D01*
X13292105Y-14173524D01*
X13301628Y-14164000D01*
X13320676Y-14154476D01*
X13473057Y-14335428D02*
X13482581Y-14344952D01*
X13473057Y-14354476D01*
X13463533Y-14344952D01*
X13473057Y-14335428D01*
X13473057Y-14354476D01*
X13606390Y-14154476D02*
X13625438Y-14154476D01*
X13644486Y-14164000D01*
X13654009Y-14173524D01*
X13663533Y-14192571D01*
X13673057Y-14230667D01*
X13673057Y-14278286D01*
X13663533Y-14316381D01*
X13654009Y-14335428D01*
X13644486Y-14344952D01*
X13625438Y-14354476D01*
X13606390Y-14354476D01*
X13587343Y-14344952D01*
X13577819Y-14335428D01*
X13568295Y-14316381D01*
X13558771Y-14278286D01*
X13558771Y-14230667D01*
X13568295Y-14192571D01*
X13577819Y-14173524D01*
X13587343Y-14164000D01*
X13606390Y-14154476D01*
X13844486Y-14221143D02*
X13844486Y-14354476D01*
X13796867Y-14144952D02*
X13749248Y-14287809D01*
X13873057Y-14287809D01*
X13930200Y-14154476D02*
X14063533Y-14154476D01*
X13977819Y-14354476D01*
X14130200Y-14173524D02*
X14139724Y-14164000D01*
X14158771Y-14154476D01*
X14206390Y-14154476D01*
X14225438Y-14164000D01*
X14234962Y-14173524D01*
X14244486Y-14192571D01*
X14244486Y-14211619D01*
X14234962Y-14240190D01*
X14120676Y-14354476D01*
X14244486Y-14354476D01*
X14320676Y-14154476D02*
X14320676Y-14192571D01*
X14396867Y-14154476D02*
X14396867Y-14192571D01*
X14692105Y-14430667D02*
X14682581Y-14421143D01*
X14663533Y-14392571D01*
X14654009Y-14373524D01*
X14644486Y-14344952D01*
X14634962Y-14297333D01*
X14634962Y-14259238D01*
X14644486Y-14211619D01*
X14654009Y-14183048D01*
X14663533Y-14164000D01*
X14682581Y-14135428D01*
X14692105Y-14125905D01*
X14873057Y-14354476D02*
X14758771Y-14354476D01*
X14815914Y-14354476D02*
X14815914Y-14154476D01*
X14796867Y-14183048D01*
X14777819Y-14202095D01*
X14758771Y-14211619D01*
X15111152Y-14354476D02*
X15111152Y-14154476D01*
X15196867Y-14354476D02*
X15196867Y-14249714D01*
X15187343Y-14230667D01*
X15168295Y-14221143D01*
X15139724Y-14221143D01*
X15120676Y-14230667D01*
X15111152Y-14240190D01*
X15320676Y-14354476D02*
X15301628Y-14344952D01*
X15292105Y-14335428D01*
X15282581Y-14316381D01*
X15282581Y-14259238D01*
X15292105Y-14240190D01*
X15301628Y-14230667D01*
X15320676Y-14221143D01*
X15349248Y-14221143D01*
X15368295Y-14230667D01*
X15377819Y-14240190D01*
X15387343Y-14259238D01*
X15387343Y-14316381D01*
X15377819Y-14335428D01*
X15368295Y-14344952D01*
X15349248Y-14354476D01*
X15320676Y-14354476D01*
X15501628Y-14354476D02*
X15482581Y-14344952D01*
X15473057Y-14325905D01*
X15473057Y-14154476D01*
X15654009Y-14344952D02*
X15634962Y-14354476D01*
X15596867Y-14354476D01*
X15577819Y-14344952D01*
X15568295Y-14325905D01*
X15568295Y-14249714D01*
X15577819Y-14230667D01*
X15596867Y-14221143D01*
X15634962Y-14221143D01*
X15654009Y-14230667D01*
X15663533Y-14249714D01*
X15663533Y-14268762D01*
X15568295Y-14287809D01*
X15730200Y-14430667D02*
X15739724Y-14421143D01*
X15758771Y-14392571D01*
X15768295Y-14373524D01*
X15777819Y-14344952D01*
X15787343Y-14297333D01*
X15787343Y-14259238D01*
X15777819Y-14211619D01*
X15768295Y-14183048D01*
X15758771Y-14164000D01*
X15739724Y-14135428D01*
X15730200Y-14125905D01*
M02*
